<svg xmlns="http://www.w3.org/2000/svg" xmlns:xlink="http://www.w3.org/1999/xlink" width="12.485" height="19.784" viewBox="0 0 12.485 19.784">
  <defs>
    <clipPath id="clip-path">
      <rect id="Rectangle_50" data-name="Rectangle 50" width="12.485" height="19.784" fill="#bebebe"/>
    </clipPath>
  </defs>
  <g id="Group_27" data-name="Group 27" transform="translate(0 0)">
    <g id="Group_26" data-name="Group 26" transform="translate(0 0)" clip-path="url(#clip-path)">
      <path id="Path_4" data-name="Path 4" d="M4.075,19.087a2.379,2.379,0,0,1-2.08.665A2.412,2.412,0,0,1,.119,18.118a2.308,2.308,0,0,1,.589-2.4l4.226-4.227a2.261,2.261,0,0,0,0-3.2L.747,4.1A2.389,2.389,0,0,1,.069,1.838,2.344,2.344,0,0,1,2.392,0,2.368,2.368,0,0,1,4.076.7L11.929,8.55a1.9,1.9,0,0,1,0,2.683Z" transform="translate(0 0)" fill="#bebebe"/>
    </g>
  </g>
</svg>
