<svg xmlns="http://www.w3.org/2000/svg" width="30" height="28.688" viewBox="0 0 30 28.688">
  <g id="Group_41" data-name="Group 41" transform="translate(-2172.146 148.85)">
    <path id="Path_39" data-name="Path 39" d="M42.2,16.843a2.639,2.639,0,0,0,0-3.723L29.859.775a2.655,2.655,0,0,0-3.748,0L13.74,13.094a2.639,2.639,0,0,0,1.749,4.5h.1a.608.608,0,0,1,.6.6v7.172a3.322,3.322,0,0,0,3.324,3.324h5.873a.949.949,0,0,0,.95-.95V24.665a.645.645,0,0,1,.65-.65h2.124a.645.645,0,0,1,.65.65v3.074a.949.949,0,0,0,.95.95h5.573A3.322,3.322,0,0,0,39.6,25.364V18.192a.608.608,0,0,1,.6-.6,2.619,2.619,0,0,0,2-.75m-3-.725a.949.949,0,0,0-.95.95v8.3a1.845,1.845,0,0,1-1.849,1.849h-4.4a.645.645,0,0,1-.65-.65V23.09a.581.581,0,0,0-.575-.575h-5.3a.581.581,0,0,0-.575.575v3.474a.645.645,0,0,1-.65.65h-4.7a1.845,1.845,0,0,1-1.849-1.849v-8.3a.949.949,0,0,0-.95-.95H15.64a1.137,1.137,0,0,1-.8-1.949l.05-.05L27.21,1.8a1.133,1.133,0,0,1,.825-.35,1.176,1.176,0,0,1,.825.35l12.295,12.37a1.177,1.177,0,0,1,0,1.649,1.133,1.133,0,0,1-.825.35Z" transform="translate(2159.174 -148.85)" fill="#1f6136"/>
  </g>
</svg>
