<svg id="Group_46" data-name="Group 46" xmlns="http://www.w3.org/2000/svg" xmlns:xlink="http://www.w3.org/1999/xlink" width="83.665" height="40" viewBox="0 0 83.665 40">
  <defs>
    <clipPath id="clip-path">
      <rect id="Rectangle_56" data-name="Rectangle 56" width="83.665" height="40" fill="none"/>
    </clipPath>
  </defs>
  <g id="Group_35" data-name="Group 35" clip-path="url(#clip-path)">
    <path id="Path_5" data-name="Path 5" d="M91.508,125.136c-.184.209,2.453,2.182,3.895,6a14.226,14.226,0,0,1,.458,1.442,6.594,6.594,0,0,0-9.83,8.742c.026.034.048.07.074.1a7.075,7.075,0,0,0,11.91-2.878,11.785,11.785,0,0,0-2.509-10.485c-1.76-2.092-3.846-3.1-4-2.925m5.608,10.2a3.932,3.932,0,0,1-.621,1.161,4.893,4.893,0,0,1-1.759,1.468,2.229,2.229,0,0,0-.375,1.5,1.653,1.653,0,0,0,.266.734,1.693,1.693,0,0,0,.919.655,2.08,2.08,0,0,1-1.923,1.535,1.859,1.859,0,0,1-1.608-.885,2.443,2.443,0,0,1,1.177-3.07c-.292.184-2.93,1.805-4.958,1.1A3,3,0,0,1,87,138.775a3.088,3.088,0,0,1-.813-1.884c-.144-1.936,1.665-3.251,1.9-3.416a4.7,4.7,0,0,1,2.032-.8,2.8,2.8,0,0,0-.726,2.384,2.424,2.424,0,0,0,.729,1.2,3.241,3.241,0,0,0,2.5.77,2.852,2.852,0,0,1-2.292-2.529,2.1,2.1,0,0,1,.6-1.342,1.979,1.979,0,0,1,3.509,1.166,1.149,1.149,0,0,0-1.041-.231,1.079,1.079,0,0,0-.621.585,1.171,1.171,0,0,0-.046.792,1.633,1.633,0,0,0,1.531,1.068,1.931,1.931,0,0,0,1.225-.517,3.289,3.289,0,0,0,1.065-1.631,5.774,5.774,0,0,0,.068-2.319,3.734,3.734,0,0,1,.5,3.258" transform="translate(-71.065 -105.018)" fill="#1f6136"/>
    <path id="Path_6" data-name="Path 6" d="M62.088,184.644c-.242.639-.405,1.16-.5,1.486-.613,2.061-.539,2.964-1.386,4.093a3.236,3.236,0,0,1-.656.707,3.5,3.5,0,0,1-2.423.614,11.19,11.19,0,0,0,5.637,3.163,12.136,12.136,0,0,0,9.2-2.046c-1.471.225-5.49.662-7.233-1.509a17.331,17.331,0,0,1-1.965-4.484c-.3-.845-.524-1.55-.668-2.023" transform="translate(-47.945 -154.983)" fill="#1f6136"/>
    <path id="Path_7" data-name="Path 7" d="M127.228,105.384c.142.24,2.833-1.659,6.911-1.849a14.27,14.27,0,0,1,1.513.01,6.595,6.595,0,0,0,5.276,12.051c.04-.014.081-.024.121-.039a7.075,7.075,0,0,0,.943-12.217,11.784,11.784,0,0,0-10.747-.854c-2.534,1.027-4.134,2.7-4.017,2.9m11.434-2.181a3.935,3.935,0,0,1,.912.95,4.895,4.895,0,0,1,.852,2.126,2.229,2.229,0,0,0,1.313.821,1.655,1.655,0,0,0,.781-.026,1.693,1.693,0,0,0,.906-.672,2.08,2.08,0,0,1,.865,2.3,1.859,1.859,0,0,1-1.339,1.256,2.443,2.443,0,0,1-2.556-2.068c.085.335.812,3.344-.488,5.055a3,3,0,0,1-1.1.943,3.089,3.089,0,0,1-2.043.191c-1.886-.461-2.578-2.588-2.662-2.861a4.7,4.7,0,0,1-.13-2.179,2.8,2.8,0,0,0,2.043,1.428,2.426,2.426,0,0,0,1.369-.322,3.241,3.241,0,0,0,1.505-2.14,2.852,2.852,0,0,1-3.114,1.4,2.105,2.105,0,0,1-1.091-.984,1.979,1.979,0,0,1,2.193-2.977,1.149,1.149,0,0,0-.541.919,1.078,1.078,0,0,0,.364.771,1.171,1.171,0,0,0,.739.289,1.633,1.633,0,0,0,1.489-1.126,1.93,1.93,0,0,0-.113-1.325,3.289,3.289,0,0,0-1.222-1.517,5.776,5.776,0,0,0-2.185-.782,3.734,3.734,0,0,1,3.254.529" transform="translate(-106.785 -85.266)" fill="#1f6136"/>
    <path id="Path_8" data-name="Path 8" d="M171.643,144.807c.533.427.978.744,1.258.937,1.771,1.219,2.652,1.429,3.464,2.583a3.234,3.234,0,0,1,.469.842,3.5,3.5,0,0,1-.164,2.494,11.192,11.192,0,0,0,4.75-4.383,11.667,11.667,0,0,0,1.288-7.733,11.794,11.794,0,0,0-.392-1.645c-.241,1.468-1.067,5.426-3.67,6.412a17.322,17.322,0,0,1-4.872.483c-.9.026-1.636.02-2.131.01" transform="translate(-144.07 -115.748)" fill="#1f6136"/>
    <path id="Path_9" data-name="Path 9" d="M119.186,40.049c.272-.061-.7-3.207.377-7.144a14.263,14.263,0,0,1,.477-1.436,6.594,6.594,0,0,0,13.091-1.294c0-.043,0-.084,0-.127A7.075,7.075,0,0,0,121.8,25.376a11.785,11.785,0,0,0-4.133,9.957c.194,2.727,1.291,4.766,1.515,4.716M120.645,28.5a3.933,3.933,0,0,1,1.185-.574,4.89,4.89,0,0,1,2.285-.154,2.231,2.231,0,0,0,1.186-.995,1.656,1.656,0,0,0,.216-.751,1.693,1.693,0,0,0-.359-1.07,2.08,2.08,0,0,1,2.457-.111,1.86,1.86,0,0,1,.781,1.661,2.443,2.443,0,0,1-2.757,1.792c.344.023,3.431.262,4.656,2.026a3,3,0,0,1,.556,1.341,3.089,3.089,0,0,1-.45,2c-1.021,1.651-3.258,1.652-3.544,1.647a4.7,4.7,0,0,1-2.112-.55,2.8,2.8,0,0,0,1.989-1.5,2.427,2.427,0,0,0,.117-1.4,3.242,3.242,0,0,0-1.57-2.093,2.852,2.852,0,0,1,.368,3.393,2.106,2.106,0,0,1-1.273.733,1.979,1.979,0,0,1-2.153-3.006,1.149,1.149,0,0,0,.707.8,1.078,1.078,0,0,0,.846-.108,1.173,1.173,0,0,0,.5-.613,1.633,1.633,0,0,0-.611-1.764,1.929,1.929,0,0,0-1.3-.3,3.288,3.288,0,0,0-1.82.693,5.774,5.774,0,0,0-1.418,1.836,3.735,3.735,0,0,1,1.509-2.931" transform="translate(-98.743 -19.932)" fill="#1f6136"/>
    <path id="Path_10" data-name="Path 10" d="M176.821,36.035c.571-.375,1.01-.7,1.28-.907,1.707-1.307,2.178-2.08,3.527-2.5a3.238,3.238,0,0,1,.946-.186,3.5,3.5,0,0,1,2.321.927,11.191,11.191,0,0,0-2.7-5.872,12.137,12.137,0,0,0-8.643-3.75c1.322.683,4.831,2.692,4.964,5.472a17.336,17.336,0,0,1-1.046,4.783c-.252.861-.487,1.562-.648,2.03" transform="translate(-145.672 -19.936)" fill="#1f6136"/>
    <path id="Path_11" data-name="Path 11" d="M56.371,38.537c.026-.277-3.267-.323-6.678-2.566a14.254,14.254,0,0,1-1.218-.9,6.594,6.594,0,0,0,2.815-12.85c-.041-.012-.08-.029-.121-.04a6.6,6.6,0,0,0-8.346,6.648,6.548,6.548,0,0,0,.4,2.681,11.785,11.785,0,0,0,8.193,7.008c2.654.658,4.932.245,4.954.017M45.839,33.581a3.932,3.932,0,0,1-.18-1.3,4.891,4.891,0,0,1,.56-2.221,2.23,2.23,0,0,0-.58-1.435,1.654,1.654,0,0,0-.647-.438,1.7,1.7,0,0,0-1.129.011,2.08,2.08,0,0,1,.653-2.372,1.86,1.86,0,0,1,1.821-.23,2.443,2.443,0,0,1,.852,3.176c.128-.32,1.309-3.183,3.366-3.8A3.005,3.005,0,0,1,52,24.85,3.089,3.089,0,0,1,53.77,25.9c1.255,1.482.564,3.609.471,3.88a4.7,4.7,0,0,1-1.176,1.839,2.8,2.8,0,0,0-.813-2.356,2.425,2.425,0,0,0-1.3-.544,3.24,3.24,0,0,0-2.475.846,2.852,2.852,0,0,1,3.341.7,2.1,2.1,0,0,1,.3,1.437,2.156,2.156,0,0,1-1.787,1.857,2.177,2.177,0,0,1-1.737-.738,1.149,1.149,0,0,0,.978-.426,1.079,1.079,0,0,0,.158-.838,1.171,1.171,0,0,0-.428-.668,1.633,1.633,0,0,0-1.866.035,1.931,1.931,0,0,0-.687,1.138,3.291,3.291,0,0,0,.1,1.946,5.772,5.772,0,0,0,1.308,1.916,3.734,3.734,0,0,1-2.322-2.341" transform="translate(-35.928 -18.419)" fill="#1f6136"/>
    <path id="Path_12" data-name="Path 12" d="M57.741,8.806c-.18-.659-.354-1.177-.467-1.5-.716-2.027-1.306-2.715-1.284-4.126a3.237,3.237,0,0,1,.116-.957A3.5,3.5,0,0,1,57.7.3a11.19,11.19,0,0,0-6.42.754,11.664,11.664,0,0,0-5.587,5.5,11.764,11.764,0,0,0-.65,1.562C46.1,7.074,49.1,4.357,51.786,5.089a17.333,17.333,0,0,1,4.225,2.473c.741.506,1.335.946,1.73,1.244" transform="translate(-37.811 -0.112)" fill="#1f6136"/>
    <path id="Path_13" data-name="Path 13" d="M126.8,17.123a.832.832,0,1,1,1.162.184.832.832,0,0,1-1.162-.184" transform="translate(-106.299 -13.264)" fill="#1f6136"/>
    <path id="Path_14" data-name="Path 14" d="M25.427,85.122a.832.832,0,1,1,.534-1.048.832.832,0,0,1-.534,1.048" transform="translate(-20.428 -70.086)" fill="#1f6136"/>
    <path id="Path_15" data-name="Path 15" d="M58.775,202.55a.832.832,0,1,1-.832-.832.832.832,0,0,1,.832.832" transform="translate(-47.937 -169.314)" fill="#1f6136"/>
    <path id="Path_16" data-name="Path 16" d="M180.756,207.121a.832.832,0,1,1-1.048.534.832.832,0,0,1,1.048-.534" transform="translate(-150.805 -173.815)" fill="#1f6136"/>
    <path id="Path_17" data-name="Path 17" d="M222.8,92.522a.832.832,0,1,1,.184,1.162.832.832,0,0,1-.184-1.162" transform="translate(-186.876 -77.371)" fill="#1f6136"/>
    <path id="Path_18" data-name="Path 18" d="M31.89,109.187c-.256-.111-1.317,3.007-4.5,5.558a14.227,14.227,0,0,1-1.23.881A6.594,6.594,0,0,0,14.8,108.979c-.024.035-.052.067-.075.1a6.6,6.6,0,0,0,3.744,9.992,6.55,6.55,0,0,0,2.674.446,11.785,11.785,0,0,0,9.2-5.626c1.446-2.32,1.757-4.615,1.546-4.706m-7.968,8.485a3.928,3.928,0,0,1-1.3-.232,4.892,4.892,0,0,1-1.939-1.219,2.23,2.23,0,0,0-1.544.108,1.654,1.654,0,0,0-.616.48,1.694,1.694,0,0,0-.339,1.076,2.08,2.08,0,0,1-2.054-1.354,1.86,1.86,0,0,1,.345-1.8,2.443,2.443,0,0,1,3.283.171c-.265-.221-2.622-2.229-2.576-4.376a3.008,3.008,0,0,1,.338-1.412,3.091,3.091,0,0,1,1.541-1.356c1.8-.735,3.607.579,3.835.751a4.7,4.7,0,0,1,1.385,1.686,2.8,2.8,0,0,0-2.492.046,2.425,2.425,0,0,0-.918,1.066,3.241,3.241,0,0,0,.04,2.616,2.852,2.852,0,0,1,1.7-2.961,2.106,2.106,0,0,1,1.461.155,2.156,2.156,0,0,1,1.214,2.274,2.178,2.178,0,0,1-1.238,1.423,1.149,1.149,0,0,0-.1-1.062,1.079,1.079,0,0,0-.748-.409,1.172,1.172,0,0,0-.767.2,1.633,1.633,0,0,0-.543,1.786,1.93,1.93,0,0,0,.87,1.005,3.288,3.288,0,0,0,1.88.509,5.772,5.772,0,0,0,2.227-.652,3.734,3.734,0,0,1-2.944,1.485" transform="translate(-11.447 -89.07)" fill="#1f6136"/>
    <path id="Path_19" data-name="Path 19" d="M9.42,92.751c-.682-.033-1.229-.027-1.568-.018-2.149.054-2.985.4-4.321-.054a3.236,3.236,0,0,1-.875-.406,3.5,3.5,0,0,1-1.333-2.115A11.191,11.191,0,0,0,.057,96.5a11.664,11.664,0,0,0,3.5,7.013,11.749,11.749,0,0,0,1.284,1.1c-.668-1.329-2.326-5.017-.8-7.345A17.334,17.334,0,0,1,7.7,94.012c.71-.548,1.312-.978,1.718-1.261" transform="translate(0 -75.676)" fill="#1f6136"/>
    <path id="Path_20" data-name="Path 20" d="M280.161,30.105a6.367,6.367,0,0,1,.107,1.361,5.815,5.815,0,0,1-.117,1.37q-.117.437-.408.437a5.025,5.025,0,0,1-1.973-.389,2.68,2.68,0,0,1-1.39-1.322,5.111,5.111,0,0,1-2.488.7,3.52,3.52,0,0,1-1.584-1.069,2.887,2.887,0,0,1-.1-3.674,5.2,5.2,0,0,1,1.2-1.157q.583-.379,1.711-1l.194-.34a1.447,1.447,0,0,1,.214-.3,10.843,10.843,0,0,1,1.351-.321,8.067,8.067,0,0,1,1.39-.165l.156.136q.039,2.158.194,4.121a1.45,1.45,0,0,0,.321.9,1.1,1.1,0,0,0,.807.262q.311,0,.418.447m-5.355-1.263a7.382,7.382,0,0,0,.777-.078q-.078-.544-.117-1.147a7.764,7.764,0,0,0-.933.467,2.656,2.656,0,0,0-.68.583,2.4,2.4,0,0,0,.952.175" transform="translate(-227.969 -20.342)" fill="#1f6136"/>
    <path id="Path_21" data-name="Path 21" d="M325.27,5.487q1.632,1.05,2.469,1.545a2.907,2.907,0,0,0,1.186.5,10.525,10.525,0,0,1-.243,1.876,11.1,11.1,0,0,1-.612,1.759q-.506-.039-.739-.039a7.669,7.669,0,0,0-2.527.486q-.525.194-.972.369a18.851,18.851,0,0,1-2.119.71,8.589,8.589,0,0,1-2.157.243q-.292,0-.408-.437a5.8,5.8,0,0,1-.117-1.37,6.364,6.364,0,0,1,.107-1.361q.107-.447.418-.447a10.21,10.21,0,0,0,1.8-.136q.748-.136,1.973-.428l.486-.117,1.205-.272a10.44,10.44,0,0,0-1.244-.6,5.132,5.132,0,0,0-1.166-.3q-.622-.087-1.613-.146l-.428-.019-.078-.078a12.251,12.251,0,0,1,.3-1.642,6.851,6.851,0,0,1,.437-1.331,5.381,5.381,0,0,1,.758-.058,3.944,3.944,0,0,1,1.341.224,6.4,6.4,0,0,1,1.264.632Zm-2.2-2.809a4.147,4.147,0,0,1-.914-.787,2.9,2.9,0,0,1,.3-.69,4.718,4.718,0,0,1,.554-.8,1.061,1.061,0,0,1,.544-.4,1.145,1.145,0,0,1,.651.194,4.134,4.134,0,0,1,.816.573,1.246,1.246,0,0,1,.418.535q.077.292-.437,1.02a3.909,3.909,0,0,1-.865.962,5.472,5.472,0,0,1-1.069-.612" transform="translate(-267.782 0)" fill="#1f6136"/>
    <path id="Path_22" data-name="Path 22" d="M382.033,56.917a6.362,6.362,0,0,1,.107,1.361,5.809,5.809,0,0,1-.117,1.37q-.117.437-.408.437a9.079,9.079,0,0,1-1.438-.155q-.369,1.011-1.05,2.507-.447.972-.865,1.74a9.139,9.139,0,0,1-.515.884,7.356,7.356,0,0,1-1.711-.952,6.731,6.731,0,0,1-1.225-1.03,32.882,32.882,0,0,0,2.041-3.129,20,20,0,0,0,1.594-3.654l.175-.117a11.8,11.8,0,0,0,1.681.233q.865.058,1.312.058.311,0,.418.447" transform="translate(-314.602 -47.154)" fill="#1f6136"/>
    <path id="Path_23" data-name="Path 23" d="M418.472,58.44a6.364,6.364,0,0,1,.107,1.361,5.8,5.8,0,0,1-.117,1.37q-.117.437-.408.437H414.42q-.291,0-.408-.437a5.814,5.814,0,0,1-.116-1.37A6.364,6.364,0,0,1,414,58.44q.107-.447.418-.447h3.635q.311,0,.418.447" transform="translate(-347.407 -48.677)" fill="#1f6136"/>
    <path id="Path_24" data-name="Path 24" d="M441.1,58.44a6.365,6.365,0,0,1,.107,1.361,5.8,5.8,0,0,1-.117,1.37q-.117.437-.408.437h-3.635q-.291,0-.408-.437a5.814,5.814,0,0,1-.116-1.37,6.362,6.362,0,0,1,.107-1.361q.107-.447.418-.447h3.635q.311,0,.418.447" transform="translate(-366.399 -48.677)" fill="#1f6136"/>
    <path id="Path_25" data-name="Path 25" d="M465.387,27.352q1.633,1.05,2.469,1.545a2.905,2.905,0,0,0,1.186.5,10.537,10.537,0,0,1-.243,1.876,11.1,11.1,0,0,1-.612,1.759q-.506-.039-.739-.039a7.673,7.673,0,0,0-2.527.486q-.525.194-.972.369a18.847,18.847,0,0,1-2.119.709,8.589,8.589,0,0,1-2.157.243q-.292,0-.408-.437a5.8,5.8,0,0,1-.117-1.37,6.364,6.364,0,0,1,.107-1.361q.107-.447.418-.447a10.209,10.209,0,0,0,1.8-.136q.748-.136,1.973-.428l.486-.117,1.205-.272a10.456,10.456,0,0,0-1.244-.6,5.129,5.129,0,0,0-1.166-.3q-.622-.087-1.613-.146l-.428-.019-.078-.078a12.251,12.251,0,0,1,.3-1.642,6.858,6.858,0,0,1,.437-1.332,5.381,5.381,0,0,1,.758-.058,3.944,3.944,0,0,1,1.341.223,6.4,6.4,0,0,1,1.264.632Zm1.652,10.4a3.42,3.42,0,0,1-.8.875,5.51,5.51,0,0,1-.894-.515,5.944,5.944,0,0,1-.875-.69,4.269,4.269,0,0,1-.505.71,3.155,3.155,0,0,1-.506.5,5.833,5.833,0,0,1-.982-.583,4.937,4.937,0,0,1-.865-.719,4.028,4.028,0,0,1,.583-1.079q.467-.671.778-.671a1.976,1.976,0,0,1,.914.428,2.5,2.5,0,0,1,.777.719,4.92,4.92,0,0,1,.554-.8.8.8,0,0,1,.534-.35,2.1,2.1,0,0,1,.982.476q.671.476.729.748a1.686,1.686,0,0,1-.428.952m-1.847.778a4,4,0,0,1,.719.505,1.052,1.052,0,0,1,.369.486q.039.252-.408.894a3.112,3.112,0,0,1-.758.836,6.459,6.459,0,0,1-.933-.554,4.388,4.388,0,0,1-.816-.671,2.731,2.731,0,0,1,.5-1q.437-.632.748-.69a1.15,1.15,0,0,1,.583.194" transform="translate(-385.39 -21.865)" fill="#1f6136"/>
    <path id="Path_26" data-name="Path 26" d="M284.364,177.266a6.69,6.69,0,0,1-.777,3.355,11.229,11.229,0,0,1-2.142.426,25.045,25.045,0,0,1-2.957.161,26.867,26.867,0,0,1-5.706-.588,15.628,15.628,0,0,1,.777-3.45,38.027,38.027,0,0,0,5.952.474q1.1,0,2.1-.095-.171-.7-.379-1.346t-.265-.8l3.052-.7a9.409,9.409,0,0,1,.341,2.559m-4.4-1.9a3.739,3.739,0,0,1-.777.872,5.7,5.7,0,0,1-.91-.521,4.247,4.247,0,0,1-.815-.673,4.484,4.484,0,0,1-.493.7,2.944,2.944,0,0,1-.493.493,6.456,6.456,0,0,1-.967-.578,4.654,4.654,0,0,1-.834-.692,4.049,4.049,0,0,1,.569-1.061q.455-.663.758-.663a1.9,1.9,0,0,1,.91.426,2.255,2.255,0,0,1,.739.711,4.98,4.98,0,0,1,.55-.805.76.76,0,0,1,.512-.332,2.049,2.049,0,0,1,.957.464q.654.465.711.73a1.644,1.644,0,0,1-.417.929" transform="translate(-228.962 -145.416)" fill="#1f6136"/>
    <path id="Path_27" data-name="Path 27" d="M352.884,162.949a6.2,6.2,0,0,1,.1,1.327,5.66,5.66,0,0,1-.114,1.336q-.114.427-.4.426a14.942,14.942,0,0,1-2.019-.133,6.371,6.371,0,0,1-1.64-.417,58.183,58.183,0,0,1-.284-6.161l-.114-3.848,3.052-.171q.171,2.825.171,5.194,0,.721-.038,1.933a5.522,5.522,0,0,0,.872.076q.3,0,.408.436" transform="translate(-292.45 -130.361)" fill="#1f6136"/>
    <path id="Path_28" data-name="Path 28" d="M374.95,200.586a6.209,6.209,0,0,1,.1,1.327,5.654,5.654,0,0,1-.114,1.336q-.113.427-.4.426H371q-.284,0-.4-.426a5.658,5.658,0,0,1-.114-1.336,6.212,6.212,0,0,1,.1-1.327q.1-.436.408-.436h3.545q.3,0,.408.436" transform="translate(-310.971 -167.998)" fill="#1f6136"/>
    <path id="Path_29" data-name="Path 29" d="M397.017,200.586a6.2,6.2,0,0,1,.1,1.327,5.668,5.668,0,0,1-.114,1.336q-.114.427-.4.426h-3.545q-.284,0-.4-.426a5.658,5.658,0,0,1-.114-1.336,6.2,6.2,0,0,1,.1-1.327q.1-.436.407-.436h3.545q.3,0,.407.436" transform="translate(-329.493 -167.998)" fill="#1f6136"/>
    <path id="Path_30" data-name="Path 30" d="M422.95,190.087a6.2,6.2,0,0,1,.1,1.327,5.668,5.668,0,0,1-.114,1.336q-.114.427-.4.426a3.458,3.458,0,0,1-2.938-1.327h-.171a2.4,2.4,0,0,1-1.118.853,5.8,5.8,0,0,1-1.384.379,13.637,13.637,0,0,1-1.8.095q-.284,0-.4-.426a5.66,5.66,0,0,1-.114-1.336,6.2,6.2,0,0,1,.1-1.327q.1-.436.408-.436a9.588,9.588,0,0,0,1.744-.133,2.961,2.961,0,0,0,1.27-.569,3.084,3.084,0,0,0,.929-1.308l1.592.247a3.547,3.547,0,0,0-.019.417,1.194,1.194,0,0,0,.417,1.071,2.854,2.854,0,0,0,1.479.275q.3,0,.408.436m-2.531,6.54a3.743,3.743,0,0,1-.777.872,5.722,5.722,0,0,1-.91-.521,4.252,4.252,0,0,1-.815-.673,4.492,4.492,0,0,1-.493.7,2.968,2.968,0,0,1-.493.493,6.455,6.455,0,0,1-.967-.578,4.667,4.667,0,0,1-.834-.692,4.045,4.045,0,0,1,.569-1.062q.455-.664.758-.663a1.9,1.9,0,0,1,.91.427,2.254,2.254,0,0,1,.739.711,4.948,4.948,0,0,1,.55-.805.758.758,0,0,1,.512-.332,2.047,2.047,0,0,1,.957.465q.654.464.711.73a1.643,1.643,0,0,1-.417.929" transform="translate(-348.014 -157.499)" fill="#1f6136"/>
    <path id="Path_31" data-name="Path 31" d="M466.842,170.269q1.592,1.024,2.407,1.507a2.835,2.835,0,0,0,1.156.484,10.3,10.3,0,0,1-.237,1.829,10.824,10.824,0,0,1-.6,1.715q-.493-.038-.72-.038a7.483,7.483,0,0,0-2.464.474q-.512.19-.948.36a18.381,18.381,0,0,1-2.066.692,8.383,8.383,0,0,1-2.1.237q-.284,0-.4-.426a5.658,5.658,0,0,1-.114-1.336,6.194,6.194,0,0,1,.1-1.327q.1-.436.407-.436a9.942,9.942,0,0,0,1.753-.133q.729-.132,1.924-.417l.474-.114,1.175-.265a10.225,10.225,0,0,0-1.213-.587,4.994,4.994,0,0,0-1.137-.294q-.607-.086-1.573-.142l-.417-.019-.076-.076a11.908,11.908,0,0,1,.294-1.6,6.674,6.674,0,0,1,.427-1.3,5.247,5.247,0,0,1,.739-.057,3.847,3.847,0,0,1,1.308.218,6.239,6.239,0,0,1,1.232.616Z" transform="translate(-386.741 -141.851)" fill="#1f6136"/>
  </g>
</svg>
