<svg xmlns="http://www.w3.org/2000/svg" xmlns:xlink="http://www.w3.org/1999/xlink" width="22.229" height="15.538" viewBox="0 0 22.229 15.538">
  <defs>
    <clipPath id="clip-path">
      <rect id="Rectangle_9" data-name="Rectangle 9" width="22.229" height="15.538" transform="translate(0 0)" fill="#fff"/>
    </clipPath>
  </defs>
  <g id="Group_3" data-name="Group 3" transform="translate(0 0)" clip-path="url(#clip-path)">
    <path id="Path_1" data-name="Path 1" d="M9.384.6h0a2.064,2.064,0,0,1,0,2.919L7.843,5.066a.375.375,0,0,0,.265.64H20.164a2.064,2.064,0,1,1,0,4.128H8.108a.375.375,0,0,0-.265.64l1.541,1.541a2.064,2.064,0,0,1-2.919,2.919L.5,8.964a1.689,1.689,0,0,1,0-2.389L6.465.6A2.064,2.064,0,0,1,9.384.6" transform="translate(0 0)" fill="#fff"/>
  </g>
</svg>
