<svg xmlns="http://www.w3.org/2000/svg" width="30" height="21.215" viewBox="0 0 30 21.215">
  <g id="Group_47" data-name="Group 47" transform="translate(-2171.605 36.648)">
    <path id="Path_40" data-name="Path 40" d="M38.062,494.4H13.444a2.651,2.651,0,0,0-2.7,2.522,2.428,2.428,0,0,0,.751,1.843,2.63,2.63,0,0,0,1.9.776H33.809a.728.728,0,1,0,0-1.455H13.419a1.211,1.211,0,0,1-.851-.339,1.045,1.045,0,0,1-.325-.776,1.126,1.126,0,0,1,1.151-1.091H38.087a1.143,1.143,0,0,1,1.151,1.091,1.045,1.045,0,0,1-.325.776,1.211,1.211,0,0,1-.851.339H36.786a.728.728,0,1,0,0,1.455h1.3a2.63,2.63,0,0,0,1.9-.776,2.5,2.5,0,0,0,.751-1.843,2.612,2.612,0,0,0-2.677-2.522" transform="translate(2160.865 -523.011)" fill="#1f6136"/>
    <path id="Path_41" data-name="Path 41" d="M38.062,526.2H13.444a2.651,2.651,0,0,0-2.7,2.523,2.427,2.427,0,0,0,.751,1.843,2.63,2.63,0,0,0,1.9.776H38.087a2.63,2.63,0,0,0,1.9-.776,2.5,2.5,0,0,0,.751-1.843,2.612,2.612,0,0,0-2.677-2.523m.851,3.347a1.211,1.211,0,0,1-.851.34H13.419a1.211,1.211,0,0,1-.851-.34,1.045,1.045,0,0,1-.325-.776,1.126,1.126,0,0,1,1.151-1.091H38.087a1.143,1.143,0,0,1,1.151,1.091.96.96,0,0,1-.325.776" transform="translate(2160.865 -546.774)" fill="#1f6136"/>
    <path id="Path_42" data-name="Path 42" d="M38.062,462.6H13.444a2.651,2.651,0,0,0-2.7,2.522,2.428,2.428,0,0,0,.751,1.843,2.63,2.63,0,0,0,1.9.776H38.087a2.63,2.63,0,0,0,1.9-.776,2.5,2.5,0,0,0,.751-1.843,2.612,2.612,0,0,0-2.677-2.522m.851,3.347a1.211,1.211,0,0,1-.851.34H13.419a1.211,1.211,0,0,1-.851-.34,1.045,1.045,0,0,1-.325-.776,1.126,1.126,0,0,1,1.151-1.091H38.087a1.143,1.143,0,0,1,1.151,1.091.991.991,0,0,1-.325.776" transform="translate(2160.865 -499.248)" fill="#1f6136"/>
  </g>
</svg>
