<svg xmlns="http://www.w3.org/2000/svg" width="30" height="30.024" viewBox="0 0 30 30.024">
  <g id="Group_48" data-name="Group 48" transform="translate(-2174.918 75.48)">
    <path id="Path_34" data-name="Path 34" d="M78.944,321.279a.717.717,0,0,0,.412-.922A8.516,8.516,0,0,0,71.4,314.9a.7.7,0,0,0,0,1.407,7.154,7.154,0,0,1,6.622,4.56.723.723,0,0,0,.655.461.873.873,0,0,0,.267-.048" transform="translate(2115.956 -387.372)" fill="#1f6136"/>
    <path id="Path_35" data-name="Path 35" d="M103.8,346.8a.7.7,0,1,0,.7.7.675.675,0,0,0-.7-.7" transform="translate(2091.542 -411.179)" fill="#1f6136"/>
    <path id="Path_36" data-name="Path 36" d="M53.495,327.294l-4.954-4.954a.723.723,0,0,0-.826-.15.591.591,0,0,0-.225.15l-.15.15-.876-.876a12.116,12.116,0,1,0-9.908,5.2,11.962,11.962,0,0,0,6.955-2.2l.876.876-.15.15a.74.74,0,0,0,0,1.026l4.7,4.7a3.952,3.952,0,0,0,2.4,1.151h.225a3.108,3.108,0,0,0,1.726-.7,3.05,3.05,0,0,0,1.1-2.227,3.111,3.111,0,0,0-.9-2.3m-2.177,3.753h0a1.615,1.615,0,0,1-.951-.325,1.09,1.09,0,0,1-.175-.15l-2.5-2.5,2.252-2.252,2.5,2.5a1.63,1.63,0,0,1,0,2.3,1.546,1.546,0,0,1-1.126.425m-4.7-4.028-.851-.851,2.252-2.252.851.851-2.252,2.252h0m-2-5.379a.227.227,0,0,0,0,.25l1.7,1.651-.926.926-1.7-1.651c-.075-.05-.175-.075-.225,0l-.45.375a10.679,10.679,0,1,1,4.228-8.507,10.488,10.488,0,0,1-1.9,6.08,7.44,7.44,0,0,1-.676.876Z" transform="translate(2150.521 -377.98)" fill="#1f6136"/>
  </g>
</svg>
