<svg xmlns="http://www.w3.org/2000/svg" xmlns:xlink="http://www.w3.org/1999/xlink" width="12.485" height="19.784" viewBox="0 0 12.485 19.784">
  <defs>
    <clipPath id="clip-path">
      <rect id="Rectangle_50" data-name="Rectangle 50" width="12.485" height="19.784" fill="#bebebe"/>
    </clipPath>
  </defs>
  <g id="Group_26" data-name="Group 26" clip-path="url(#clip-path)">
    <path id="Path_4" data-name="Path 4" d="M8.409,19.087a2.379,2.379,0,0,0,2.08.665,2.412,2.412,0,0,0,1.875-1.634,2.308,2.308,0,0,0-.589-2.4L7.549,11.491a2.261,2.261,0,0,1,0-3.2L11.738,4.1a2.389,2.389,0,0,0,.678-2.265A2.385,2.385,0,0,0,8.409.7L.556,8.55a1.9,1.9,0,0,0,0,2.683Z" transform="translate(0.001 0)" fill="#bebebe"/>
  </g>
</svg>
